<svg version="1.1" id="Layer_1" xmlns="http://www.w3.org/2000/svg" xmlns:xlink="http://www.w3.org/1999/xlink" x="0px" y="0px"
	 viewBox="0 0 45.9 45.9" style="enable-background:new 0 0 45.9 45.9;" xml:space="preserve">
    <g>
        <path d="M22.5,18.5c4.2-0.1,4.1-6.7-0.3-6.4C17.9,12.4,18.2,18.6,22.5,18.5z"/>
        <path d="M22.9,0C10.3,0,0,10.3,0,22.9c0,12.7,10.3,22.9,22.9,22.9c12.7,0,22.9-10.3,22.9-22.9C45.9,10.3,35.6,0,22.9,0
            z M14.6,14c0.7-4.7,5.2-7,9.1-6.4c4.5,0.8,7,4.9,6.4,8.8C28.6,26.8,13,24.3,14.6,14z M30.5,36.9c-1.5,1.6-3.2,0.1-4.4-1
            c-1-1-2.2-2.2-3.3-3.1c-2.8,2.9-5.1,6.5-7.4,4.5c-2.7-2.3,2.6-5.8,4-7.8c-1.4-0.3-3.7-1.1-4.8-1.9c-1.1-0.8-1.3-2.7,0-3.7
            c1.6-1.1,2.6,0.1,4.5,0.7c7.1,2.3,9.8-4.1,11.9-0.4c1.8,3.2-4.3,4.6-5,5.1C28.9,32.2,32.7,34.7,30.5,36.9z"/>
    </g>
</svg>
