<svg xmlns="http://www.w3.org/2000/svg" viewBox="0 0 45.9 45.9"><path d="M22.5 18.5c4.2-.1 4.1-6.7-.3-6.4-4.3.3-4 6.5.3 6.4z"/><path d="M22.9 0C10.3 0 0 10.3 0 22.9c0 12.7 10.3 22.9 22.9 22.9 12.7 0 22.9-10.3 22.9-22.9C45.9 10.3 35.6 0 22.9 0zm-8.3 14c.7-4.7 5.2-7 9.1-6.4 4.5.8 7 4.9 6.4 8.8C28.6 26.8 13 24.3 14.6 14zm15.9 22.9c-1.5 1.6-3.2.1-4.4-1-1-1-2.2-2.2-3.3-3.1-2.8 2.9-5.1 6.5-7.4 4.5-2.7-2.3 2.6-5.8 4-7.8-1.4-.3-3.7-1.1-4.8-1.9-1.1-.8-1.3-2.7 0-3.7 1.6-1.1 2.6.1 4.5.7 7.1 2.3 9.8-4.1 11.9-.4 1.8 3.2-4.3 4.6-5 5.1 2.9 2.9 6.7 5.4 4.5 7.6z"/></svg>