<svg width="185pt" height="36" viewBox="0 0 185 27" xmlns="http://www.w3.org/2000/svg"><path fill="#00b05a" d="M3.79 14.11C-.96 10.69.89 1.39 7.06 1.04c3.67.31 8.22-1.23 11.03 1.88 1.51 1.38 1.83 3.46 2.33 5.33-2 .02-4 .01-6-.07-1.12-3.32-7.28-3.13-7.24.68 2.15 3 6.78 1.47 9.81 3.17 5.39 2.05 4.81 10.57-.2 12.75-5.66 3.63-16.05.93-15.98-6.79 1.94 0 3.87.02 5.81.08 1.49 2.37 4.71 3.18 7.15 1.76 1.32-.64 1.18-2.04.36-3.02-3.37-1.18-7.32-.54-10.34-2.7zM31.28 1.4C35.77.57 41.13.04 44.92 3.19c6.8 5.38 5.99 17.81-1.95 21.76-5.39 2.56-12.93 1.79-16.76-3.16-5.05-6.32-2.97-17.61 5.07-20.39zM54.01.95c2.14 0 4.28-.01 6.43 0 .03 6.35.11 12.7-.06 19.05 3.09.39 6.22.29 9.34.27.02 1.88.04 3.76.09 5.64-5.27.31-10.53.08-15.8.11-.02-8.36-.02-16.71 0-25.07zm27.19.13c4.44-.8 9.64-.73 13.18 2.49 6.51 5.77 5.21 18.18-3.04 21.7-4.78 1.69-10.79 1.66-14.71-1.99-7.06-6.06-4.84-19.8 4.57-22.2zm31.81-.12c2.13-.03 4.27-.04 6.4-.04.24 6.47-.2 12.95.23 19.41 3.02-.1 6.05-.07 9.08-.04.02 1.87.05 3.74.1 5.62-5.27.23-10.55.15-15.82.14 0-8.36-.01-16.73.01-25.09zm18.71.02c4.09-.04 8.18-.03 12.28.01-.01 1.82 0 3.63.02 5.45-.71-.03-2.12-.08-2.83-.11-.39 4.62-.11 9.26-.19 13.89.78.01 2.36.02 3.15.03.08 1.92.12 3.84.13 5.76-4.23.02-8.45.05-12.67.06-.06-1.83-.12-3.66-.21-5.49 1.12-.21 2.25-.43 3.38-.66-.06-4.38-.1-8.77.03-13.16-3.77.66-3.19-3.31-3.09-5.78zM148 1c5.26-.03 10.53-.2 15.79.08-.04 1.88-.05 3.77-.07 5.65-3.11-.01-6.23-.15-9.31.28 0 1.6-.02 3.21-.05 4.81 2.67.22 5.34.22 8.02.16.06 1.83.14 3.66.28 5.49-2.75.4-5.55.11-8.29.61.11 2.65.12 5.32.07 7.98l-6.43-.03C148 17.69 148 9.34 148 1zm21 0c5.23 0 10.45.02 15.68-.04.02 1.92.05 3.84.07 5.76-3.09.03-6.18.03-9.28-.01.17 1.02-.45 2.35.38 3.15 2.71.3 5.45.15 8.17.13-.03 1.93-.06 3.87-.1 5.8-2.92-.12-5.84-.07-8.74.2.25 1.38.08 2.9.75 4.17 3.01.25 6.05.11 9.07.1V26h-15.99c-.02-8.33-.01-16.67-.01-25z"/><path fill="#fff" d="M33.41 7.42c3.6-2.05 8.92.2 9.45 4.44 1.32 4.59-3.12 9.67-7.88 8.28-5.81-1.05-6.85-10.27-1.57-12.72zm48.95.01c3.64-2.08 8.97.2 9.52 4.47 1.26 4.59-3.15 9.61-7.91 8.24-5.78-1.09-6.83-10.19-1.61-12.71z"/></svg>