<?xml version="1.0" encoding="UTF-8" ?>
<!DOCTYPE svg PUBLIC "-//W3C//DTD SVG 1.1//EN" "http://www.w3.org/Graphics/SVG/1.1/DTD/svg11.dtd">
<svg width="185pt" height="27pt" viewBox="0 0 185 27" version="1.1" xmlns="http://www.w3.org/2000/svg">
<path fill="#00b05a" d=" M 3.79 14.11 C -0.96 10.69 0.89 1.39 7.06 1.04 C 10.73 1.35 15.28 -0.19 18.09 2.92 C 19.60 4.30 19.92 6.38 20.42 8.25 C 18.42 8.27 16.42 8.26 14.42 8.18 C 13.30 4.86 7.14 5.05 7.18 8.86 C 9.33 11.86 13.96 10.33 16.99 12.03 C 22.38 14.08 21.80 22.60 16.79 24.78 C 11.13 28.41 0.74 25.71 0.81 17.99 C 2.75 17.99 4.68 18.01 6.62 18.07 C 8.11 20.44 11.33 21.25 13.77 19.83 C 15.09 19.19 14.95 17.79 14.13 16.81 C 10.76 15.63 6.81 16.27 3.79 14.11 Z" />
<path fill="#00b05a" d=" M 31.28 1.40 C 35.77 0.57 41.13 0.04 44.92 3.19 C 51.72 8.57 50.91 21.00 42.97 24.95 C 37.58 27.51 30.04 26.74 26.21 21.79 C 21.16 15.47 23.24 4.18 31.28 1.40 Z" />
<path fill="#00b05a" d=" M 54.01 0.95 C 56.15 0.95 58.29 0.94 60.44 0.95 C 60.47 7.30 60.55 13.65 60.38 20.00 C 63.47 20.39 66.60 20.29 69.72 20.27 C 69.74 22.15 69.76 24.03 69.81 25.91 C 64.54 26.22 59.28 25.99 54.01 26.02 C 53.99 17.66 53.99 9.31 54.01 0.95 Z" />
<path fill="#00b05a" d=" M 81.20 1.08 C 85.64 0.28 90.84 0.35 94.38 3.57 C 100.89 9.34 99.59 21.75 91.34 25.27 C 86.56 26.96 80.55 26.93 76.63 23.28 C 69.57 17.22 71.79 3.48 81.20 1.08 Z" />
<path fill="#00b05a" d=" M 113.01 0.96 C 115.14 0.93 117.28 0.92 119.41 0.92 C 119.65 7.39 119.21 13.87 119.64 20.33 C 122.66 20.23 125.69 20.26 128.72 20.29 C 128.74 22.16 128.77 24.03 128.82 25.91 C 123.55 26.14 118.27 26.06 113.00 26.05 C 113.00 17.69 112.99 9.32 113.01 0.96 Z" />
<path fill="#00b05a" d=" M 131.72 0.98 C 135.81 0.94 139.90 0.95 144.00 0.99 C 143.99 2.81 144.00 4.62 144.02 6.44 C 143.31 6.41 141.90 6.36 141.19 6.33 C 140.80 10.95 141.08 15.59 141.00 20.22 C 141.78 20.23 143.36 20.24 144.15 20.25 C 144.23 22.17 144.27 24.09 144.28 26.01 C 140.05 26.03 135.83 26.06 131.61 26.07 C 131.55 24.24 131.49 22.41 131.40 20.58 C 132.52 20.37 133.65 20.15 134.78 19.92 C 134.72 15.54 134.68 11.15 134.81 6.76 C 131.04 7.42 131.62 3.45 131.72 0.98 Z" />
<path fill="#00b05a" d=" M 148.00 1.00 C 153.26 0.97 158.53 0.80 163.79 1.08 C 163.75 2.96 163.74 4.85 163.72 6.73 C 160.61 6.72 157.49 6.58 154.41 7.01 C 154.41 8.61 154.39 10.22 154.36 11.82 C 157.03 12.04 159.70 12.04 162.38 11.98 C 162.44 13.81 162.52 15.64 162.66 17.47 C 159.91 17.87 157.11 17.58 154.37 18.08 C 154.48 20.73 154.49 23.40 154.44 26.06 C 152.29 26.05 150.15 26.04 148.01 26.03 C 148.00 17.69 148.00 9.34 148.00 1.00 Z" />
<path fill="#00b05a" d=" M 169.00 1.00 C 174.23 1.00 179.45 1.02 184.68 0.96 C 184.70 2.88 184.73 4.80 184.75 6.72 C 181.66 6.75 178.57 6.75 175.47 6.71 C 175.64 7.73 175.02 9.06 175.85 9.86 C 178.56 10.16 181.30 10.01 184.02 9.99 C 183.99 11.92 183.96 13.86 183.92 15.79 C 181.00 15.67 178.08 15.72 175.18 15.99 C 175.43 17.37 175.26 18.89 175.93 20.16 C 178.94 20.41 181.98 20.27 185.00 20.26 L 185.00 26.00 C 179.67 26.00 174.34 26.00 169.01 26.00 C 168.99 17.67 169.00 9.33 169.00 1.00 Z" />
<path fill="#ffffff" d=" M 33.41 7.42 C 37.01 5.37 42.33 7.62 42.86 11.86 C 44.18 16.45 39.74 21.53 34.98 20.14 C 29.17 19.09 28.13 9.87 33.41 7.42 Z" />
<path fill="#ffffff" d=" M 82.36 7.43 C 86.00 5.35 91.33 7.63 91.88 11.90 C 93.14 16.49 88.73 21.51 83.97 20.14 C 78.19 19.05 77.14 9.95 82.36 7.43 Z" />
</svg>
