<?xml version="1.0" encoding="UTF-8" ?>
<!DOCTYPE svg PUBLIC "-//W3C//DTD SVG 1.1//EN" "http://www.w3.org/Graphics/SVG/1.1/DTD/svg11.dtd">
<svg width="42pt" height="27pt" viewBox="0 0 42 27" version="1.1" xmlns="http://www.w3.org/2000/svg">
<path fill="#ffffff" d=" M 0.00 0.00 L 42.00 0.00 L 42.00 27.00 L 0.00 27.00 L 0.00 0.00 Z" />
<path fill="#ffb400" d=" M 3.32 13.69 C -0.92 9.90 1.21 1.51 7.10 0.87 C 10.58 0.73 14.71 -0.10 17.56 2.42 C 19.40 3.79 19.96 6.10 20.38 8.22 C 18.37 8.28 16.36 8.28 14.35 8.14 C 13.22 4.48 5.93 5.40 7.48 9.60 C 10.92 11.69 15.65 10.31 18.79 13.17 C 22.35 16.32 21.02 22.85 16.79 24.80 C 11.01 28.39 0.87 25.69 0.67 17.95 C 3.07 18.14 5.94 17.27 7.81 19.27 C 9.40 20.87 11.93 20.71 13.87 19.87 C 15.12 19.06 15.00 17.07 13.55 16.56 C 10.16 15.61 6.08 16.32 3.32 13.69 Z" />
<path fill="#ffb400" d=" M 26.00 0.96 C 28.12 1.00 30.24 1.01 32.37 1.00 C 32.66 7.47 32.19 13.95 32.62 20.40 C 35.49 20.20 38.37 20.25 41.24 20.51 C 41.19 22.30 41.20 24.10 41.26 25.89 C 36.18 26.23 31.10 25.96 26.02 26.00 C 25.97 17.65 26.02 9.31 26.00 0.96 Z" />
</svg>
